<svg fill="none" height="49" viewBox="0 0 48 49" width="48" xmlns="http://www.w3.org/2000/svg"><path d="m44 24.5c0 11.0457-8.9543 20-20 20s-20-8.9543-20-20 8.9543-20 20-20 20 8.9543 20 20z" fill="#1575e5"/><path d="m28.8038 35.4998c4.2361-1.8526 7.1962-6.0805 7.1962-10.9998 0-2.0198-.499-3.9231-1.3805-5.5933.8793-1.5728 1.3805-3.3858 1.3805-5.3158 0-.6025-.4884-1.0909-1.0909-1.0909h-10.9091c-6.6274 0-12 5.3726-12 12 0 4.9196 2.9604 9.1477 7.197 11.0002-2.6383 1.1538-4.7816 3.2289-6.0232 5.8187 3.1206 2.0129 6.8373 3.1811 10.827 3.1811 3.9896 0 7.7063-1.1682 10.8269-3.1811-1.2417-2.59-3.3853-4.6653-6.0239-5.8191z" fill="#a6cfff"/><g fill="#1575e5"><path clip-rule="evenodd" d="m21 27.5c.5523 0 1 .4477 1 1 0 1.1046.8954 2 2 2s2-.8954 2-2c0-.5523.4477-1 1-1s1 .4477 1 1c0 2.2091-1.7909 4-4 4s-4-1.7909-4-4c0-.5523.4477-1 1-1z" fill-rule="evenodd"/><path d="m20 22c0 .8284-.6716 1.5-1.5 1.5s-1.5-.6716-1.5-1.5.6716-1.5 1.5-1.5 1.5.6716 1.5 1.5z"/><path d="m31 22c0 .8284-.6716 1.5-1.5 1.5s-1.5-.6716-1.5-1.5.6716-1.5 1.5-1.5 1.5.6716 1.5 1.5z"/></g></svg>